HIERARCHY
ROOT Hips
{
	OFFSET 0.000000 103.266502 0.000000
	CHANNELS 6 Xposition Yposition Zposition Xrotation Yrotation Zrotation 
	JOINT Spine
	{
		OFFSET -0.002400 12.777504 0.315300
		CHANNELS 3 Xrotation Yrotation Zrotation
		JOINT Spine1
		{
			OFFSET -0.002067 5.816869 0.032633
			CHANNELS 3 Xrotation Yrotation Zrotation
			JOINT Spine1_split
			{
				OFFSET -0.002067 5.816869 0.032633
				CHANNELS 3 Xrotation Yrotation Zrotation
				JOINT Spine2
				{
					OFFSET -0.002067 5.816869 0.032633
					CHANNELS 3 Xrotation Yrotation Zrotation
					JOINT Neck
					{
						OFFSET -0.003700 21.199493 -0.826900
						CHANNELS 3 Xrotation Yrotation Zrotation
						JOINT Head
						{
							OFFSET 0.000000 20.442200 4.834800
							CHANNELS 3 Xrotation Yrotation Zrotation
							JOINT HeadTop_End
							{
								OFFSET 0.000000 34.668396 4.968400
								CHANNELS 3 Xrotation Yrotation Zrotation
								End Site
								{
									OFFSET 0.000000 0.000000 0.000000
								}
							}
						}
					}
					JOINT LeftShoulder
					{
						OFFSET 3.288150 8.794197 -1.372250
						CHANNELS 3 Xrotation Yrotation Zrotation
						JOINT LeftShoulder_split
						{
							OFFSET 3.288150 8.794197 -1.372250
							CHANNELS 3 Xrotation Yrotation Zrotation
							JOINT LeftArm
							{
								OFFSET 11.953299 -2.279007 -0.146200
								CHANNELS 3 Xrotation Yrotation Zrotation
								JOINT LeftForeArm
								{
									OFFSET 18.448900 0.000000 0.000000
									CHANNELS 3 Xrotation Yrotation Zrotation
									JOINT LeftHand
									{
										OFFSET 29.527798 0.000000 0.000000
										CHANNELS 3 Xrotation Yrotation Zrotation
										JOINT LeftHandThumb1
										{
											OFFSET 10.739754 -2.369614 9.225399
											CHANNELS 3 Xrotation Yrotation Zrotation
											JOINT LeftHandThumb2
											{
												OFFSET 4.926170 -2.844131 2.844125
												CHANNELS 3 Xrotation Yrotation Zrotation
												JOINT LeftHandThumb3
												{
													OFFSET 4.614891 -2.664413 2.664409
													CHANNELS 3 Xrotation Yrotation Zrotation
													JOINT LeftHandThumb4
													{
														OFFSET 4.432465 -2.559082 2.559083
														CHANNELS 3 Xrotation Yrotation Zrotation
														End Site
														{
															OFFSET 0.000000 0.000000 0.000000
														}
													}
												}
											}
										}
										JOINT LeftHandIndex1
										{
											OFFSET 26.467674 0.187653 6.405298
											CHANNELS 3 Xrotation Yrotation Zrotation
											JOINT LeftHandIndex2
											{
												OFFSET 8.792900 0.000000 0.000000
												CHANNELS 3 Xrotation Yrotation Zrotation
												JOINT LeftHandIndex3
												{
													OFFSET 10.075203 0.000000 0.000000
													CHANNELS 3 Xrotation Yrotation Zrotation
													End Site
													{
														OFFSET 0.000000 0.000000 0.000000
													}
												}
											}
										}
										JOINT LeftHandMiddle1
										{
											OFFSET 25.764404 0.000000 0.000000
											CHANNELS 3 Xrotation Yrotation Zrotation
											JOINT LeftHandMiddle2
											{
												OFFSET 9.393974 0.000000 0.000000
												CHANNELS 3 Xrotation Yrotation Zrotation
												JOINT LeftHandMiddle3
												{
													OFFSET 10.771950 0.000000 0.000000
													CHANNELS 3 Xrotation Yrotation Zrotation
													End Site
													{
														OFFSET 0.000000 0.000000 0.000000
													}
												}
											}
										}
										JOINT LeftHandRing1
										{
											OFFSET 24.660927 0.144547 -6.225808
											CHANNELS 3 Xrotation Yrotation Zrotation
											JOINT LeftHandRing2
											{
												OFFSET 9.393799 0.000000 0.000000
												CHANNELS 3 Xrotation Yrotation Zrotation
												JOINT LeftHandRing3
												{
													OFFSET 9.928497 0.000000 0.000000
													CHANNELS 3 Xrotation Yrotation Zrotation
													End Site
													{
														OFFSET 0.000000 0.000000 0.000000
													}
												}
											}
										}
										JOINT LeftHandPinky1
										{
											OFFSET 23.655350 0.125290 -12.815412
											CHANNELS 3 Xrotation Yrotation Zrotation
											JOINT LeftHandPinky2
											{
												OFFSET 8.425102 0.000000 0.000000
												CHANNELS 3 Xrotation Yrotation Zrotation
												JOINT LeftHandPinky3
												{
													OFFSET 8.147003 0.000000 0.000000
													CHANNELS 3 Xrotation Yrotation Zrotation
													End Site
													{
														OFFSET 0.000000 0.000000 0.000000
													}
												}
											}
										}
									}
								}
							}
						}
					}
					JOINT RightShoulder
					{
						OFFSET -3.249400 8.794197 -1.372250
						CHANNELS 3 Xrotation Yrotation Zrotation
						JOINT RightShoulder_split
						{
							OFFSET -3.249400 8.794197 -1.372250
							CHANNELS 3 Xrotation Yrotation Zrotation
							JOINT RightArm
							{
								OFFSET -11.953299 -2.279007 -0.146200
								CHANNELS 3 Xrotation Yrotation Zrotation
								JOINT RightForeArm
								{
									OFFSET -18.448900 0.000000 0.000000
									CHANNELS 3 Xrotation Yrotation Zrotation
									JOINT RightHand
									{
										OFFSET -29.527802 0.000000 0.000000
										CHANNELS 3 Xrotation Yrotation Zrotation
										JOINT RightHandThumb1
										{
											OFFSET -10.739754 -2.369614 9.225399
											CHANNELS 3 Xrotation Yrotation Zrotation
											JOINT RightHandThumb2
											{
												OFFSET -4.926170 -2.844131 2.844125
												CHANNELS 3 Xrotation Yrotation Zrotation
												JOINT RightHandThumb3
												{
													OFFSET -4.614891 -2.664413 2.664409
													CHANNELS 3 Xrotation Yrotation Zrotation
													JOINT RightHandThumb4
													{
														OFFSET -4.432465 -2.559082 2.559083
														CHANNELS 3 Xrotation Yrotation Zrotation
														End Site
														{
															OFFSET 0.000000 0.000000 0.000000
														}
													}
												}
											}
										}
										JOINT RightHandIndex1
										{
											OFFSET -26.467674 0.187653 6.405298
											CHANNELS 3 Xrotation Yrotation Zrotation
											JOINT RightHandIndex2
											{
												OFFSET -8.792900 0.000000 0.000000
												CHANNELS 3 Xrotation Yrotation Zrotation
												JOINT RightHandIndex3
												{
													OFFSET -10.075203 0.000000 0.000000
													CHANNELS 3 Xrotation Yrotation Zrotation
													End Site
													{
														OFFSET 0.000000 0.000000 0.000000
													}
												}
											}
										}
										JOINT RightHandMiddle1
										{
											OFFSET -25.764404 0.000000 0.000000
											CHANNELS 3 Xrotation Yrotation Zrotation
											JOINT RightHandMiddle2
											{
												OFFSET -9.393974 0.000000 0.000000
												CHANNELS 3 Xrotation Yrotation Zrotation
												JOINT RightHandMiddle3
												{
													OFFSET -10.771950 0.000000 0.000000
													CHANNELS 3 Xrotation Yrotation Zrotation
													End Site
													{
														OFFSET 0.000000 0.000000 0.000000
													}
												}
											}
										}
										JOINT RightHandRing1
										{
											OFFSET -24.660927 0.144547 -6.225808
											CHANNELS 3 Xrotation Yrotation Zrotation
											JOINT RightHandRing2
											{
												OFFSET -9.393799 0.000000 0.000000
												CHANNELS 3 Xrotation Yrotation Zrotation
												JOINT RightHandRing3
												{
													OFFSET -9.928497 0.000000 0.000000
													CHANNELS 3 Xrotation Yrotation Zrotation
													End Site
													{
														OFFSET 0.000000 0.000000 0.000000
													}
												}
											}
										}
										JOINT RightHandPinky1
										{
											OFFSET -23.655350 0.125290 -12.815412
											CHANNELS 3 Xrotation Yrotation Zrotation
											JOINT RightHandPinky2
											{
												OFFSET -8.425102 0.000000 0.000000
												CHANNELS 3 Xrotation Yrotation Zrotation
												JOINT RightHandPinky3
												{
													OFFSET -8.147003 0.000000 0.000000
													CHANNELS 3 Xrotation Yrotation Zrotation
													End Site
													{
														OFFSET 0.000000 0.000000 0.000000
													}
												}
											}
										}
									}
								}
							}
						}
					}
				}
			}
		}
	}
	JOINT LeftUpLeg
	{
		OFFSET 11.394100 -6.187798 -0.413800
		CHANNELS 3 Xrotation Yrotation Zrotation
		JOINT LeftLeg
		{
			OFFSET 0.430247 -32.302673 3.732800
			CHANNELS 3 Xrotation Yrotation Zrotation
			JOINT LeftFoot
			{
				OFFSET -0.430247 -48.264931 -6.423300
				CHANNELS 3 Xrotation Yrotation Zrotation
				JOINT LeftToeBase
				{
					OFFSET 4.230900 -16.068199 23.438400
					CHANNELS 3 Xrotation Yrotation Zrotation
					JOINT LeftToe_End
					{
						OFFSET 4.510700 0.695400 19.974600
						CHANNELS 3 Xrotation Yrotation Zrotation
						End Site
						{
							OFFSET 0.000000 0.000000 0.000000
						}
					}
				}
			}
		}
	}
	JOINT RightUpLeg
	{
		OFFSET -11.333700 -6.187798 -0.413800
		CHANNELS 3 Xrotation Yrotation Zrotation
		JOINT RightLeg
		{
			OFFSET -0.430392 -32.302628 3.733000
			CHANNELS 3 Xrotation Yrotation Zrotation
			JOINT RightFoot
			{
				OFFSET 0.430392 -48.264973 -6.423500
				CHANNELS 3 Xrotation Yrotation Zrotation
				JOINT RightToeBase
				{
					OFFSET -4.230900 -16.068199 23.438400
					CHANNELS 3 Xrotation Yrotation Zrotation
					JOINT RightToe_End
					{
						OFFSET -4.510700 0.695400 19.974600
						CHANNELS 3 Xrotation Yrotation Zrotation
						End Site
						{
							OFFSET 0.000000 0.000000 0.000000
						}
					}
				}
			}
		}
	}
}
MOTION
Frames: 5
Frame Time: 0.016667
-3.678543 98.782486 -7.899303 -9.383799 -0.937462 3.432127 7.163122 1.543115 -4.419173 14.244015 3.269503 -3.077380 0.000000 0.000000 0.000000 14.269162 3.169302 -3.056459 34.427066 0.786428 -4.647346 -1.158482 2.164346 -5.573705 0.000001 0.000001 -0.000001 -1.697382 -21.196978 -25.775450 0.000000 0.000000 0.000000 -1.040203 -44.501777 -31.977908 4.422142 -24.531576 1.305865 -9.189759 -9.383433 -4.673675 -20.843958 2.778248 -4.205213 -15.861899 33.847812 10.250615 0.000001 0.000006 -0.000022 -0.000002 -0.000000 -0.000002 -3.032230 19.342223 -21.628900 6.299687 9.746923 -60.829023 0.000001 -0.000002 -0.000001 -13.487431 18.094993 -22.029665 6.757707 12.670229 -69.483692 0.000001 -0.000001 0.000000 -15.276632 16.701593 -37.493364 3.110960 12.310333 -81.609532 -0.000004 0.000004 -0.000002 -30.922657 24.752747 -41.175024 6.897624 7.241764 -89.331402 -0.000000 -0.000002 -0.000002 -1.956285 23.252496 25.557186 0.000000 0.000000 0.000000 -0.642670 20.673876 37.850135 388.848024 40.014390 -373.261177 -9.479953 7.418360 17.742878 -21.511957 -2.863846 5.102375 -16.456426 -31.619596 -10.828974 0.000008 0.000002 -0.000015 -0.000002 0.000000 -0.000001 -1.117319 -20.400107 22.512874 6.671898 -9.934593 63.001023 0.000000 0.000000 -0.000001 -13.816718 -17.423251 21.320934 6.561186 -12.925901 68.651099 0.000000 0.000001 -0.000000 -14.137756 -15.831735 36.119201 3.239855 -12.615812 81.908305 0.000000 0.000000 0.000001 -31.246917 -25.471722 41.789727 6.380862 -7.478747 85.668973 0.000001 0.000001 0.000003 -9.184358 8.843212 -3.764543 24.508935 -0.329777 -0.264794 -6.609383 3.860266 3.227084 -0.000004 -0.000003 -0.000002 0.000000 -0.000000 -0.000000 -14.935383 -12.992735 -16.891792 29.266285 0.445482 0.310764 -4.728884 -14.367445 4.826305 -0.000143 0.000008 0.000388 0.000000 0.000001 -0.000000 
-3.271439 99.016388 -7.774117 -9.892248 -1.242155 3.641410 6.796345 1.604304 -4.565420 13.499552 3.300435 -3.157294 0.000000 0.000000 0.000000 13.525421 3.199131 -3.135814 33.353422 1.110180 -4.334505 -1.596120 2.537176 -5.856432 0.000001 -0.000000 0.000002 -1.205559 -20.666494 -24.364063 0.000000 0.000000 0.000000 1.602667 -41.933605 -31.598234 4.490926 -26.563547 0.875698 -9.122652 -9.161230 -3.757665 -20.813326 1.465088 -4.329372 -17.962349 34.591449 10.894325 0.000001 0.000005 -0.000023 0.000000 0.000000 0.000001 -2.865772 20.397636 -21.773241 6.720259 9.983955 -64.054921 0.000000 -0.000002 0.000002 -14.124293 18.570898 -22.021452 7.166287 13.162454 -72.156065 -0.000001 0.000004 -0.000001 -15.699011 16.729316 -37.472187 3.380876 13.021824 -85.361225 -0.000001 0.000002 0.000001 -32.764964 25.881139 -41.122411 7.141887 7.587531 -92.296886 -0.000001 -0.000001 0.000003 -1.348470 22.309546 23.910462 0.000000 0.000000 0.000000 2.405176 20.579678 39.044828 390.735042 42.386088 -375.654503 -9.510663 7.694595 16.288773 -21.155642 -1.499646 4.801380 -18.479147 -32.518548 -11.171446 0.000005 0.000001 -0.000014 0.000001 0.000001 -0.000001 -1.414023 -21.180229 23.136489 7.201683 -10.089882 66.392212 -0.000000 -0.000000 0.000000 -13.696599 -18.828238 22.659697 7.302380 -13.300220 72.456115 -0.000000 -0.000001 0.000000 -14.448094 -16.935567 37.865995 3.852952 -13.239558 86.752138 -0.000001 -0.000000 -0.000000 -32.393528 -27.169721 42.613694 7.303011 -7.722412 91.940459 0.000001 0.000001 0.000002 -7.546192 9.295541 -4.347132 23.131506 -0.311605 -0.258628 -6.304807 3.699065 3.507277 -0.000007 -0.000006 -0.000001 0.000000 0.000000 0.000000 -13.895084 -12.981649 -17.306714 28.292025 0.429582 0.305710 -4.276726 -14.072390 5.142520 -0.000121 0.000005 0.000332 -0.000000 0.000004 -0.000000 
-2.871992 99.141533 -7.696450 -10.185993 -1.451854 3.830720 6.442586 1.618887 -4.697497 12.785434 3.259336 -3.237265 0.000000 0.000000 0.000000 12.811434 3.157067 -3.215351 32.190992 1.385669 -4.182466 -2.117625 2.779012 -5.803764 -0.000001 -0.000000 0.000000 -0.606953 -19.983602 -22.751673 0.000000 0.000000 0.000000 3.591661 -39.451128 -31.646951 5.236538 -28.036362 0.947465 -9.048446 -8.981116 -2.662395 -20.797721 0.593366 -4.405182 -19.377578 35.076792 11.340731 -0.000001 0.000006 -0.000022 -0.000003 -0.000000 -0.000001 -2.843853 21.049270 -21.555218 6.983294 10.133569 -66.089949 0.000001 0.000003 0.000001 -14.712801 18.654546 -21.681823 7.427301 13.475979 -73.762198 0.000002 -0.000003 0.000002 -16.114197 16.583368 -37.151366 3.571198 13.484249 -87.649502 0.000001 -0.000001 0.000001 -34.046806 26.463771 -40.933686 7.318325 7.814289 -94.101340 0.000001 0.000000 0.000000 -0.713642 21.402176 22.136606 0.000000 0.000000 0.000000 4.746093 20.510860 40.324870 391.595673 44.303646 -377.134796 -9.517311 8.185777 14.466665 -20.919483 -0.599292 4.588745 -19.743239 -33.270582 -11.347309 0.000009 0.000001 -0.000016 0.000002 -0.000000 0.000001 -1.732023 -21.630745 23.353231 7.525105 -10.184734 68.548543 -0.000000 -0.000000 -0.000001 -13.647356 -19.748124 23.428143 7.815861 -13.530609 74.982158 -0.000000 -0.000000 0.000000 -14.832502 -17.503024 38.828041 4.283400 -13.641162 89.897905 -0.000000 0.000000 0.000003 -33.250594 -28.094733 42.857907 7.902216 -7.871614 96.036981 0.000000 -0.000001 -0.000001 -6.488386 9.692593 -4.872452 22.231653 -0.301393 -0.253942 -6.111742 3.523465 3.791871 0.000006 -0.000000 0.000001 0.000000 -0.000000 -0.000000 -13.332429 -12.927933 -17.745945 27.695051 0.421770 0.302638 -3.928429 -13.853975 5.471684 -0.000138 0.000006 0.000363 0.000000 0.000003 0.000000 
-2.497900 99.182175 -7.629848 -10.278186 -1.613306 4.004571 6.096489 1.624035 -4.826656 12.086296 3.177757 -3.317954 0.000000 0.000000 0.000000 12.112672 3.083688 -3.298395 30.904851 1.645484 -3.990196 -2.591300 2.961594 -5.738686 -0.000001 0.000000 -0.000000 0.051153 -19.230217 -20.982126 0.000000 0.000000 0.000000 4.852671 -36.960496 -32.152344 6.739161 -28.723852 1.369266 -8.972980 -8.751112 -1.470431 -20.780034 0.131067 -4.433517 -20.134389 35.301682 11.597071 0.000001 0.000006 -0.000023 -0.000000 -0.000000 -0.000001 -2.943794 21.290193 -21.292068 7.059022 10.202952 -66.897502 -0.000000 0.000002 -0.000000 -15.195118 18.667291 -21.192984 7.557094 13.632476 -74.479347 0.000001 -0.000002 -0.000000 -16.474336 16.391648 -36.743771 3.655761 13.711814 -88.528001 -0.000001 -0.000002 -0.000001 -34.882579 26.667372 -40.681631 7.415459 7.943058 -95.048591 0.000001 -0.000002 0.000000 -0.076869 20.530176 20.303506 0.000000 0.000000 0.000000 6.411385 20.396576 41.725185 391.669330 45.382410 -377.619822 -9.496802 8.760644 12.468584 -20.787040 -0.131105 4.453345 -20.394067 -33.885473 -11.409668 0.000006 0.000001 -0.000016 0.000001 -0.000000 0.000000 -1.978502 -21.846036 23.322098 7.606887 -10.233827 69.363494 -0.000000 -0.000000 -0.000000 -13.665505 -20.156389 23.639266 8.028579 -13.635644 76.097924 -0.000000 0.000000 -0.000000 -15.196112 -17.695961 39.083808 4.414961 -13.872888 91.092498 -0.000001 0.000000 0.000003 -33.824323 -28.399913 42.754440 8.070476 -7.958746 97.642670 -0.000000 -0.000001 0.000000 -5.921798 10.068955 -5.326905 21.747599 -0.295073 -0.252351 -6.055622 3.347905 4.066325 0.000006 0.000002 0.000001 0.000000 0.000000 -0.000000 -13.193248 -12.798709 -18.194043 27.471181 0.411532 0.300373 -3.718376 -13.671110 5.740057 -0.000133 0.000024 0.000348 0.000000 -0.000000 -0.000000 
-2.162980 99.167290 -7.541006 -10.221950 -1.775228 4.174078 5.748518 1.612440 -4.964348 11.386202 3.091535 -3.410622 0.000000 0.000000 0.000000 11.412666 3.001243 -3.392076 29.409435 1.908748 -3.558440 -2.904609 3.168591 -5.699418 -0.000000 0.000000 -0.000001 0.749358 -18.438159 -19.040175 0.000000 0.000000 0.000000 5.216740 -34.576234 -33.163683 8.558920 -28.595866 1.875518 -8.911198 -8.428453 -0.354342 -20.769173 -0.022928 -4.437819 -20.392679 35.279245 11.664905 -0.000001 0.000006 -0.000022 -0.000002 0.000000 -0.000000 -3.117340 21.240777 -20.904590 7.043545 10.221489 -66.993890 0.000001 0.000001 -0.000001 -15.595588 18.464004 -20.645987 7.606104 13.677444 -74.728062 0.000000 0.000001 0.000000 -16.724135 16.271604 -36.573812 3.663837 13.766240 -88.667159 -0.000001 0.000002 -0.000001 -35.356457 26.544663 -40.435096 7.495754 7.989855 -95.563417 -0.000000 0.000003 -0.000001 0.530487 19.695714 18.487719 0.000000 0.000000 0.000000 7.345201 20.182915 43.228629 390.746380 45.758863 -376.939863 -9.469268 9.415241 10.628590 -20.740296 0.021579 4.398346 -20.576918 -34.422828 -11.464954 0.000007 0.000002 -0.000016 0.000003 -0.000001 0.000000 -2.049629 -21.916586 23.307085 7.546859 -10.250809 69.264231 -0.000000 0.000000 0.000001 -13.762476 -20.183714 23.496757 8.029362 -13.664440 76.233988 0.000000 -0.000000 -0.000000 -15.370169 -17.657634 38.844215 4.352151 -13.946555 91.070525 0.000000 0.000000 0.000002 -34.135759 -28.333930 42.398792 7.997891 -8.013700 97.664854 -0.000001 0.000000 0.000003 -5.674233 10.437747 -5.724505 21.542319 -0.293144 -0.252101 -6.107383 3.196972 4.313871 -0.000000 -0.000004 -0.000003 -0.000000 -0.000001 -0.000000 -13.325695 -12.588921 -18.627411 27.485511 0.404266 0.299205 -3.610954 -13.539224 5.995246 -0.000130 0.000002 0.000343 0.000000 0.000002 0.000000 
